<svg style="background:transparent" version="1.0" xmlns="http://www.w3.org/2000/svg"
 width="1408.000000pt" height="768.000000pt" viewBox="0 0 1408.000000 768.000000"
 preserveAspectRatio="xMidYMid meet">
<metadata>
Created by potrace 1.16, written by Peter Selinger 2001-2019
</metadata>
<g transform="translate(0.000000,768.000000) scale(0.100000,-0.100000)"
fill="#1b2a4a" stroke="none">
<path d="M1260 4372 c-63 -130 -208 -428 -323 -662 -115 -234 -231 -471 -257
-526 l-48 -102 77 -6 c79 -6 140 -1 152 12 4 4 45 88 92 187 l86 180 448 2
448 2 93 -192 94 -192 111 3 c62 2 113 5 115 7 2 2 -44 98 -102 214 -58 116
-106 213 -106 216 0 3 113 5 250 5 l250 0 0 -220 0 -220 105 0 105 0 0 219 0
219 298 4 c338 5 392 13 530 79 147 71 245 193 278 348 53 250 -53 490 -261
591 -127 62 -140 64 -607 68 l-428 3 -175 -57 -174 -58 -3 -109 -3 -110 -82
-35 -83 -34 0 -254 0 -254 -48 0 -48 0 -101 208 c-56 114 -156 318 -223 455
l-121 247 -112 0 -112 0 -115 -238z m1375 -140 c0 -163 -1 -350 -3 -414 l-2
-118 -130 0 -130 0 0 374 0 374 68 23 c37 13 90 31 117 40 87 31 80 55 80
-279z m123 210 l32 -24 0 -359 0 -359 -45 0 -45 0 0 391 c0 309 3 389 13 383
6 -4 27 -19 45 -32z m662 -23 c147 -18 237 -75 289 -182 54 -110 52 -244 -5
-344 -23 -39 -108 -123 -125 -123 -5 0 -9 12 -9 28 0 59 -22 107 -69 153 l-47
45 19 26 c65 87 1 218 -108 218 -109 0 -172 -122 -111 -213 l25 -36 -25 -16
c-23 -15 -27 -14 -65 8 -35 21 -38 25 -24 37 56 46 59 150 8 202 -55 55 -144
54 -197 -1 -50 -52 -46 -156 8 -200 14 -12 11 -17 -27 -41 -43 -27 -87 -77
-87 -99 0 -6 -4 -11 -10 -11 -11 0 -15 542 -3 553 10 11 471 8 563 -4z m-1747
-411 l175 -368 -359 0 -359 0 14 33 c7 17 72 154 143 302 71 149 145 303 163
343 18 40 36 69 40 65 4 -4 86 -173 183 -375z m637 -53 l0 -255 -55 0 -55 0 0
230 0 230 48 24 c26 14 50 25 55 26 4 0 7 -115 7 -255z m819 219 c12 -15 21
-38 21 -51 0 -32 -42 -73 -75 -73 -14 0 -37 11 -50 25 -14 13 -25 36 -25 50 0
14 11 37 25 50 33 34 77 33 104 -1z m274 -14 c35 -28 41 -53 22 -89 -40 -78
-156 -28 -128 56 9 26 43 53 69 53 6 0 23 -9 37 -20z m-236 -238 c43 -30 63
-79 63 -151 l0 -61 -160 0 -160 0 0 48 c2 124 69 197 176 189 31 -2 62 -12 81
-25z m263 6 c55 -38 72 -69 74 -134 l1 -59 -50 -11 c-27 -7 -74 -13 -102 -13
l-53 -1 0 58 c-1 31 -7 75 -15 97 -8 22 -15 41 -15 43 0 1 15 11 33 22 42 26
86 25 127 -2z"/>
<path d="M2460 4285 l0 -45 45 0 45 0 0 45 0 45 -45 0 -45 0 0 -45z"/>
<path d="M2460 4130 l0 -40 45 0 45 0 0 40 0 40 -45 0 -45 0 0 -40z"/>
<path d="M2460 3975 l0 -45 45 0 45 0 0 45 0 45 -45 0 -45 0 0 -45z"/>
<path d="M2460 3815 l0 -45 45 0 45 0 0 45 0 45 -45 0 -45 0 0 -45z"/>
<path d="M4543 4313 c-80 -164 -162 -334 -183 -378 -21 -44 -122 -251 -224
-460 -102 -209 -186 -383 -186 -387 0 -5 51 -8 113 -8 l113 0 89 190 89 190
446 0 446 0 91 -190 92 -190 115 0 c64 0 116 2 116 4 0 2 -122 250 -271 552
-149 302 -318 645 -375 762 l-103 212 -111 0 -111 0 -146 -297z m267 68 c0 -8
132 -290 275 -588 l74 -153 -355 0 c-195 0 -354 4 -354 8 0 5 56 127 125 273
69 145 147 310 172 367 40 89 63 123 63 93z"/>
<path d="M5920 3845 l0 -765 105 0 105 0 0 250 0 250 242 -2 242 -3 164 -247
165 -248 120 0 119 0 -18 28 c-9 15 -91 137 -181 272 l-163 245 68 32 c104 49
174 118 224 220 42 84 43 90 47 199 2 93 -1 125 -18 181 -53 176 -190 292
-394 334 -80 16 -138 19 -459 19 l-368 0 0 -765z m785 563 c70 -21 104 -40
149 -85 64 -63 81 -112 81 -228 0 -92 -2 -104 -30 -154 -34 -62 -94 -111 -173
-143 -53 -21 -75 -23 -329 -26 l-273 -3 0 324 c0 178 3 327 8 331 13 14 512 0
567 -16z"/>
<path d="M7310 4520 l0 -90 275 0 275 0 0 -675 0 -675 105 0 105 0 1 43 c0 23
1 326 2 672 l2 630 273 3 272 2 0 90 0 90 -655 0 -655 0 0 -90z"/>
<path d="M8880 3845 l0 -765 105 0 105 0 2 587 3 586 336 -399 c185 -219 365
-433 400 -475 35 -42 106 -126 158 -187 l94 -112 94 0 93 0 0 765 0 765 -105
0 -105 0 0 -581 c0 -539 -1 -580 -16 -568 -10 8 -157 180 -328 384 -170 203
-386 459 -479 568 l-168 197 -95 0 -94 0 0 -765z"/>
<path d="M10700 3845 l0 -765 580 0 580 0 0 90 0 90 -475 0 -475 0 0 260 0
260 405 0 405 0 0 90 0 90 -405 0 -405 0 0 235 0 235 460 0 460 0 0 90 0 90
-565 0 -565 0 0 -765z"/>
<path d="M12190 3840 l0 -771 28 5 c15 2 62 5 105 5 l77 1 0 250 0 250 243 0
242 -1 165 -249 165 -250 119 0 118 0 -18 28 c-9 15 -91 137 -180 271 l-163
245 68 33 c180 86 273 240 273 448 1 244 -127 407 -377 481 -52 15 -116 18
-462 21 l-403 4 0 -771z m802 561 c86 -28 143 -72 182 -141 27 -48 31 -66 34
-150 4 -92 3 -97 -30 -160 -37 -71 -94 -122 -175 -155 -43 -17 -80 -20 -325
-23 l-278 -3 0 324 c0 178 3 327 8 331 4 4 122 6 262 4 229 -4 262 -7 322 -27z"/>
</g>
</svg>
