<?xml version="1.0" encoding="UTF-8"?>
<svg version="1.1" xmlns="http://www.w3.org/2000/svg" width="1600" height="871">
<path d="M0 0 C528 0 1056 0 1600 0 C1600 287.43 1600 574.86 1600 871 C1072 871 544 871 0 871 C0 583.57 0 296.14 0 0 Z " fill="#F6F6F6" transform="translate(0,0)"/>
<path d="M0 0 C14.41600767 11.71712039 21.28749356 26.58543316 23.27978516 44.73339844 C24.54201308 63.8296854 20.38517802 80.99640583 7.98681641 95.81933594 C-3.51522209 108.20103972 -19.56991258 115.05042759 -36.31005859 115.85839844 C-53.51162484 116.24440834 -67.52268937 110.12571204 -80.40771484 99.03027344 C-81.72021484 97.73339844 -81.72021484 97.73339844 -82.72021484 95.73339844 C-83.05021484 117.51339844 -83.38021484 139.29339844 -83.72021484 161.73339844 C-91.64021484 161.73339844 -99.56021484 161.73339844 -107.72021484 161.73339844 C-107.72021484 105.30339844 -107.72021484 48.87339844 -107.72021484 -9.26660156 C-99.80021484 -9.26660156 -91.88021484 -9.26660156 -83.72021484 -9.26660156 C-83.22521484 -1.34660156 -83.22521484 -1.34660156 -82.72021484 6.73339844 C-81.07021484 4.75339844 -79.42021484 2.77339844 -77.72021484 0.73339844 C-56.2602317 -18.04408681 -22.31087659 -16.42759406 0 0 Z " fill="#020202" transform="translate(580.72021484375,398.2666015625)"/>
<path d="M0 0 C6.84959983 5.23662955 6.84959983 5.23662955 9.484375 8.2265625 C9.484375 8.8865625 9.484375 9.5465625 9.484375 10.2265625 C10.144375 10.2265625 10.804375 10.2265625 11.484375 10.2265625 C11.484375 4.6165625 11.484375 -0.9934375 11.484375 -6.7734375 C19.074375 -6.7734375 26.664375 -6.7734375 34.484375 -6.7734375 C34.484375 33.4865625 34.484375 73.7465625 34.484375 115.2265625 C26.894375 115.2265625 19.304375 115.2265625 11.484375 115.2265625 C11.154375 109.6165625 10.824375 104.0065625 10.484375 98.2265625 C9.370625 99.4228125 8.256875 100.6190625 7.109375 101.8515625 C-4.05306319 112.95514777 -19.27638499 118.01535822 -34.828125 118.5390625 C-51.67686382 118.08562619 -67.20167177 111.58743922 -79.18359375 99.78515625 C-86.22460186 92.0600971 -90.25909863 84.14250236 -93.515625 74.2265625 C-93.88300781 73.20046875 -94.25039063 72.174375 -94.62890625 71.1171875 C-97.76189668 57.37067445 -97.12891777 40.23039747 -91.515625 27.2265625 C-91.11472656 26.28425781 -90.71382813 25.34195313 -90.30078125 24.37109375 C-82.33102328 7.9926636 -68.5104557 -1.90058559 -51.7109375 -7.75 C-34.35107878 -12.89544289 -14.86469647 -10.47914938 0 0 Z " fill="#020202" transform="translate(410.515625,395.7734375)"/>
<path d="M0 0 C0.81210937 -0.01224609 1.62421875 -0.02449219 2.4609375 -0.03710938 C17.41686436 -0.07306112 30.08038126 6.25109196 40.875 16.27734375 C42.625 18.1875 42.625 18.1875 42.625 20.1875 C43.285 20.1875 43.945 20.1875 44.625 20.1875 C44.625 14.5775 44.625 8.9675 44.625 3.1875 C52.215 3.1875 59.805 3.1875 67.625 3.1875 C67.625 43.4475 67.625 83.7075 67.625 125.1875 C60.035 125.1875 52.445 125.1875 44.625 125.1875 C44.295 119.5775 43.965 113.9675 43.625 108.1875 C42.59375 109.3425 41.5625 110.4975 40.5 111.6875 C29.33519682 122.69615209 14.51174003 128.16630658 -1.0859375 128.328125 C-15.19571039 128.05986098 -27.98804415 123.37017733 -39.375 115.1875 C-40.01050781 114.74921875 -40.64601563 114.3109375 -41.30078125 113.859375 C-52.53083426 105.28839202 -59.01702706 90.78400034 -62.015625 77.30859375 C-64.31673077 57.32399039 -61.75063629 38.65452754 -49.125 22.4375 C-36.1919059 7.4030489 -19.65549361 0.01545243 0 0 Z " fill="#020202" transform="translate(684.375,385.8125)"/>
<path d="M0 0 C12.38911408 9.93600957 19.80854977 22.25947127 22.63085938 37.90869141 C23.49434655 45.82399048 23.38085938 53.82143234 23.38085938 61.78369141 C-10.93914062 61.78369141 -45.25914063 61.78369141 -80.61914062 61.78369141 C-76.65882163 73.6646484 -71.47211874 82.14961746 -60.61914062 88.78369141 C-48.6677808 94.4855531 -34.17552264 94.51035287 -21.61914062 90.78369141 C-13.67567749 87.5770526 -6.65044672 83.62234214 -2.61914062 75.78369141 C1.87410787 77.44139473 5.99272084 79.63351302 10.19335938 81.90869141 C10.88623047 82.28123047 11.57910156 82.65376953 12.29296875 83.03759766 C13.99020774 83.95059518 15.68571075 84.86681857 17.38085938 85.78369141 C15.82291419 93.69595235 9.37004966 99.19833105 3.21289062 103.89697266 C-13.62420249 115.11396021 -34.67410642 118.13656085 -54.30664062 114.22119141 C-71.20488685 110.77311176 -84.20778476 102.71901112 -94.55664062 88.84619141 C-98.04168482 83.50812372 -100.50296154 77.78349503 -102.61914062 71.78369141 C-102.98523437 70.76533203 -103.35132813 69.74697266 -103.72851562 68.69775391 C-108.31189382 52.033201 -105.07603816 32.30948301 -96.86914062 17.40869141 C-86.98615004 2.40772356 -72.62535953 -7.95211596 -55.03320312 -11.77880859 C-35.36393473 -14.29935557 -16.26468525 -12.21813358 0 0 Z " fill="#020202" transform="translate(1208.619140625,398.21630859375)"/>
<path d="M0 0 C10.60981355 9.03004351 17.07516235 20.79782152 18.30568314 34.87571716 C18.36845613 37.06224897 18.3728359 39.24040578 18.35205078 41.42773438 C18.35234283 42.24820251 18.35263489 43.06867065 18.35293579 43.91400146 C18.35155408 46.5977271 18.33604806 49.28116724 18.3203125 51.96484375 C18.31657824 53.83670907 18.31373322 55.70857636 18.31173706 57.58044434 C18.30413311 62.48605835 18.28451267 67.39155228 18.2623291 72.29711914 C18.24180066 77.31134416 18.23272042 82.32558874 18.22265625 87.33984375 C18.20126351 97.16282143 18.166108 106.98567877 18.125 116.80859375 C10.205 116.80859375 2.285 116.80859375 -5.875 116.80859375 C-5.904729 113.38045288 -5.904729 113.38045288 -5.93505859 109.88305664 C-6.00215363 102.30735572 -6.07978978 94.73178874 -6.16252708 87.15624332 C-6.21233939 82.56602527 -6.25867004 77.97582855 -6.296875 73.38549805 C-6.33391902 68.95038478 -6.38032928 64.51545694 -6.43306351 60.08050346 C-6.45150638 58.39378571 -6.46665107 56.70702837 -6.47834396 55.02025032 C-6.24951625 37.77149408 -6.24951625 37.77149408 -13.875 22.80859375 C-21.52259422 16.40047995 -26.95686479 14.62183102 -36.6875 14.55859375 C-37.46931641 14.53796875 -38.25113281 14.51734375 -39.05664062 14.49609375 C-47.45357155 14.43997391 -54.18526462 17.44187586 -60.40625 23.234375 C-67.66613061 30.9942984 -70.95425297 40.51812524 -71.08032227 50.96386719 C-71.09517166 52.03275932 -71.09517166 52.03275932 -71.11032104 53.12324524 C-71.14183139 55.47145297 -71.16665191 57.8196809 -71.19140625 60.16796875 C-71.21198483 61.79893511 -71.23298154 63.42989624 -71.25437927 65.06085205 C-71.30950665 69.34828452 -71.35895699 73.63576438 -71.40722656 77.92327881 C-71.45750983 82.30045781 -71.51316024 86.67756822 -71.56835938 91.0546875 C-71.67582677 99.63926642 -71.77680085 108.2239038 -71.875 116.80859375 C-79.795 116.80859375 -87.715 116.80859375 -95.875 116.80859375 C-95.875 76.54859375 -95.875 36.28859375 -95.875 -5.19140625 C-88.285 -5.19140625 -80.695 -5.19140625 -72.875 -5.19140625 C-72.875 0.41859375 -72.875 6.02859375 -72.875 11.80859375 C-72.215 11.80859375 -71.555 11.80859375 -70.875 11.80859375 C-70.6275 11.25171875 -70.38 10.69484375 -70.125 10.12109375 C-65.35690601 1.30011987 -56.11974493 -3.9285551 -46.875 -7.19140625 C-31.34625543 -10.51899437 -13.1005131 -9.65681205 0 0 Z " fill="#030303" transform="translate(1062.875,394.19140625)"/>
<path d="M0 0 C10.15145312 7.26176037 16.58244584 16.36292199 19.42578125 28.51171875 C20.72475366 41.24164836 18.60019988 52.49286545 10.984375 62.9921875 C3.42003418 72.11524098 -5.5965473 76.77841616 -17.26171875 78.57421875 C-29.46449035 79.6006201 -40.53656768 76.41449008 -50.375 68.9765625 C-59.72320658 60.20873238 -64.23105764 48.79217075 -64.69921875 36.13671875 C-64.35700979 24.0881117 -59.4395469 12.84692822 -50.97265625 4.25 C-37.05704152 -7.69975805 -15.77678539 -9.94564192 0 0 Z " fill="#F5F5F5" transform="translate(402.26171875,413.42578125)"/>
<path d="M0 0 C8.8415718 6.27082908 15.288829 15.81238922 17.44921875 26.4609375 C18.49562758 36.22665665 18.48928912 45.77819945 13.44921875 54.4609375 C13.02511719 55.22535156 12.60101562 55.98976563 12.1640625 56.77734375 C5.73863 67.35514489 -2.81880545 72.88361223 -14.30078125 76.7109375 C-24.32711568 78.92791583 -35.01428761 78.19458267 -43.9921875 73.06640625 C-46.24540868 71.60014205 -48.40944019 70.08581411 -50.55078125 68.4609375 C-51.38738281 67.84476562 -52.22398437 67.22859375 -53.0859375 66.59375 C-55.69529797 64.33588817 -57.33613102 62.18411697 -59.17578125 59.2734375 C-59.74554687 58.39300781 -60.3153125 57.51257813 -60.90234375 56.60546875 C-64.60537369 49.54163201 -66.09161198 43.03833585 -65.98828125 35.0859375 C-65.97998291 34.25594238 -65.97168457 33.42594727 -65.96313477 32.57080078 C-65.65934772 21.4982493 -62.03354698 13.590362 -54.55078125 5.4609375 C-53.96554687 4.8215625 -53.3803125 4.1821875 -52.77734375 3.5234375 C-38.45022259 -10.50142372 -16.31704548 -9.84520049 0 0 Z " fill="#F5F5F5" transform="translate(711.55078125,414.5390625)"/>
<path d="M0 0 C0.92167969 0.55945313 1.84335937 1.11890625 2.79296875 1.6953125 C12.93393603 8.45595735 18.74759894 16.99039576 21.6875 28.75 C23.12021269 43.65021195 20.67756263 55.40994187 11.0625 67.1875 C3.44916124 75.27268723 -6.3175111 79.37567388 -17.3359375 80.16796875 C-30.28627045 80.29201408 -40.39972784 76.20904393 -49.7734375 67.28515625 C-58.66149654 58.16320092 -61.61937407 48.23025209 -61.47241211 35.63574219 C-61.0101304 23.66932197 -55.99516605 13.43096179 -47.25 5.25 C-34.77668822 -5.06446935 -14.33893082 -8.76680744 0 0 Z " fill="#F5F5F5" transform="translate(558,412)"/>
<path d="M0 0 C0 11.88 0 23.76 0 36 C11.55 36 23.1 36 35 36 C35 43.26 35 50.52 35 58 C23.45 58 11.9 58 0 58 C0.0910663 69.13104892 0.0910663 69.13104892 0.20898438 80.26171875 C0.2630956 84.80839864 0.31421249 89.35496088 0.34643555 93.90185547 C0.37264491 97.57198012 0.413168 101.24170451 0.46318626 104.91157913 C0.47973687 106.30438849 0.49132405 107.69726688 0.49761391 109.09016037 C0.2650949 122.90773512 0.2650949 122.90773512 6.5625 134.5625 C9.87463085 136.51580794 11.60946418 137.12743947 15.4296875 137.1328125 C16.30753906 137.13410156 17.18539062 137.13539063 18.08984375 137.13671875 C19.46849609 137.13091797 19.46849609 137.13091797 20.875 137.125 C21.78636719 137.12886719 22.69773437 137.13273438 23.63671875 137.13671875 C24.51714844 137.13542969 25.39757812 137.13414062 26.3046875 137.1328125 C27.5110083 137.13112061 27.5110083 137.13112061 28.74169922 137.12939453 C30.95159635 137.0027734 32.87779135 136.61146326 35 136 C36.11165232 140.4378561 36.11527763 144.76956386 36.0625 149.3125 C36.05798828 150.05306641 36.05347656 150.79363281 36.04882812 151.55664062 C36.03712175 153.37112899 36.01918898 155.18557534 36 157 C22.56303232 161.79891703 7.0027575 161.71451013 -6.125 155.9375 C-13.78998912 151.84548219 -19.3953609 145.2735595 -22 137 C-22.84114212 132.12371637 -23.12209436 127.44844627 -23.11352539 122.50415039 C-23.11367142 121.79111755 -23.11381744 121.07808472 -23.1139679 120.34344482 C-23.11327713 118.0114832 -23.1055243 115.67960374 -23.09765625 113.34765625 C-23.0957891 111.72098331 -23.0943666 110.09430981 -23.09336853 108.46763611 C-23.08956677 104.20484846 -23.07975668 99.94209537 -23.06866455 95.67932129 C-23.0583999 91.32202624 -23.05386012 86.96472556 -23.04882812 82.60742188 C-23.03813213 74.07159703 -23.02055449 65.53580681 -23 57 C-31.25 57 -39.5 57 -48 57 C-48 50.07 -48 43.14 -48 36 C-39.75 36 -31.5 36 -23 36 C-23 26.1 -23 16.2 -23 6 C-19.57625 5.01 -16.1525 4.02 -12.625 3 C-11.54686035 2.68675781 -10.4687207 2.37351562 -9.35791016 2.05078125 C-8.51019043 1.80714844 -7.6624707 1.56351562 -6.7890625 1.3125 C-5.91975098 1.06113281 -5.05043945 0.80976563 -4.15478516 0.55078125 C-2 0 -2 0 0 0 Z " fill="#010101" transform="translate(908,353)"/>
<path d="M0 0 C0 8.25 0 16.5 0 25 C-3.898125 25.3403125 -3.898125 25.3403125 -7.875 25.6875 C-18.62852374 26.86655619 -26.18940854 29.86086297 -33.2421875 38.3984375 C-38.94369774 46.83667266 -41.07039422 55.67796933 -41.20532227 65.73974609 C-41.22017166 66.70666382 -41.22017166 66.70666382 -41.23532104 67.69311523 C-41.2666634 69.80318654 -41.29158435 71.91328029 -41.31640625 74.0234375 C-41.3369994 75.49460401 -41.35799646 76.96576492 -41.37937927 78.43692017 C-41.43435632 82.29359374 -41.48387218 86.15031854 -41.53222656 90.00708008 C-41.58262045 93.94877639 -41.63821279 97.89039907 -41.69335938 101.83203125 C-41.80064255 109.55462666 -41.9016718 117.27728442 -42 125 C-49.92 125 -57.84 125 -66 125 C-66 84.74 -66 44.48 -66 3 C-58.08 3 -50.16 3 -42 3 C-41.67 8.94 -41.34 14.88 -41 21 C-40.030625 19.659375 -39.06125 18.31875 -38.0625 16.9375 C-30.61278917 7.44247778 -22.04164212 2.60832842 -10.25 0.25 C-6.84238406 -0.0121243 -3.41768278 0 0 0 Z " fill="#020202" transform="translate(846,386)"/>
<path d="M0 0 C0 8.25 0 16.5 0 25 C-1.918125 25.0825 -3.83625 25.165 -5.8125 25.25 C-17.76741713 26.23543785 -25.95039573 29.9441952 -34 39 C-35.79951209 41.57430201 -36.90407737 44.07090256 -38 47 C-38.26097977 47.66889252 -38.52195953 48.33778503 -38.79084778 49.02694702 C-41.50615983 56.86364806 -41.47698648 64.66058248 -41.51171875 72.8515625 C-41.52859672 74.36186146 -41.54675106 75.87214665 -41.56611633 77.38241577 C-41.6132847 81.32452078 -41.64330711 85.26656992 -41.66955566 89.2088623 C-41.69953021 93.24482251 -41.74600171 97.28059072 -41.79101562 101.31640625 C-41.87667069 109.21085822 -41.94265422 117.10529159 -42 125 C-49.59 125 -57.18 125 -65 125 C-65 84.74 -65 44.48 -65 3 C-57.41 3 -49.82 3 -42 3 C-42 9.27 -42 15.54 -42 22 C-41.34 22 -40.68 22 -40 22 C-39.814375 21.34 -39.62875 20.68 -39.4375 20 C-35.57623304 11.94170373 -28.88997785 6.39405562 -20.703125 3.06640625 C-13.58945077 0.57184599 -7.64277512 0 0 0 Z " fill="#010101" transform="translate(1321,386)"/>
<path d="M0 0 C8.91050815 7.33207528 11.73548345 13.79711208 13.86328125 25.5 C-12.20671875 25.5 -38.27671875 25.5 -65.13671875 25.5 C-62.79500458 13.79142916 -59.36545772 5.93804983 -49.5390625 -1.06640625 C-34.35317064 -10.12855635 -14.69154057 -10.31362263 0 0 Z " fill="#F1F1F1" transform="translate(1193.13671875,414.5)"/>
</svg>
